# xmcd CD database file
#
# Track frame offsets:
#	150
#	44673
#	80472
#	113085
#	154036
#
# Disc length: 2525 seconds
#
# Revision: 1
# Processed by: cddbd v1.5.2PL0 Copyright (c) Steve Scherf et al.
# Submitted via: CDex 1.70beta2
#
DISCID=3609db05
DTITLE=Simone Guiducci Gramelot Ensemble - Storie di fiume
DYEAR=2007
DGENRE=Jazz
TTITLE0=Uomini di fiume
TTITLE1=la legenda della vecia sproc
TTITLE2=prima della pioggia
TTITLE3=Confluenze
TTITLE4=Invocazione
EXTD=YEAR: 2007
EXTT0=
EXTT1=
EXTT2=
EXTT3=
EXTT4=
PLAYORDER=
